<?xml version="1.0" encoding="utf-8"?>
<svg fill="white" xmlns="http://www.w3.org/2000/svg" viewBox="0 0 500 500" xmlns:bx="https://boxy-svg.com" width="500px" height="500px"><defs><bx:export><bx:file format="svg"/></bx:export></defs><path class="fil46" d="M 241.875 487.265 L 187.53 417.009 C 186.852 416.141 186.696 415.007 187.009 414.009 C 190.121 404.281 192.382 394.693 193.747 385.26 C 194.955 376.924 195.466 368.728 195.237 360.672 C 177.457 361.52 160.315 363.382 143.828 366.337 C 126.455 369.447 109.875 373.754 94.116 379.325 C 92.574 379.869 90.909 378.975 90.398 377.339 C 90.086 376.335 90.274 375.286 90.815 374.498 C 117.113 336.441 138.766 296.859 155.534 255.691 C 172.293 214.534 184.186 171.748 190.955 127.262 C 191.216 125.554 192.725 124.387 194.331 124.656 C 195.299 124.819 196.09 125.469 196.496 126.343 C 203.777 141.602 208.807 161.646 210.504 188.754 C 212.15 214.874 210.702 247.637 205.203 289.123 L 210.993 289.123 C 218.951 245.445 220.983 207.5 217.15 175.248 C 213.275 142.614 203.392 115.792 187.56 94.703 C 186.581 93.406 186.738 91.559 187.873 90.462 C 197.902 79.83 207.306 68.351 216.212 56.32 C 225.16 44.192 233.617 31.413 241.718 18.137 C 242.604 16.69 244.427 16.292 245.792 17.19 C 246.165 17.488 246.468 17.788 246.686 18.187 C 254.769 31.413 263.226 44.192 272.162 56.32 C 281.088 68.4 290.524 79.879 300.584 90.56 C 301.658 91.709 301.74 93.506 300.815 94.703 C 284.984 115.792 275.098 142.614 271.225 175.248 C 267.392 207.5 269.423 245.445 277.38 289.123 L 283.17 289.123 C 277.672 247.637 276.224 214.874 277.859 188.754 C 279.567 161.646 284.596 141.602 291.866 126.343 C 292.606 124.801 294.378 124.177 295.837 124.95 C 296.743 125.434 297.314 126.364 297.429 127.366 C 304.21 171.818 316.093 214.569 332.84 255.691 C 349.61 296.859 371.261 336.441 397.56 374.498 C 398.529 375.901 398.236 377.853 396.925 378.881 C 396.07 379.551 394.986 379.644 394.07 379.255 C 378.375 373.72 361.846 369.437 344.546 366.337 C 328.06 363.382 310.917 361.52 293.138 360.672 C 292.908 368.728 293.418 376.924 294.627 385.26 C 295.992 394.693 298.252 404.281 301.367 414.009 C 301.73 415.137 301.449 416.34 300.731 417.164 L 246.458 487.315 C 245.427 488.644 243.572 488.843 242.313 487.736 C 242.157 487.594 242.012 487.441 241.875 487.265 Z M 193.122 414.373 L 244.188 480.389 L 295.252 414.373 C 292.283 404.834 290.117 395.446 288.774 386.202 C 287.358 376.404 286.879 366.751 287.368 357.249 C 287.461 355.551 288.806 354.233 290.42 354.29 C 309.542 355.067 327.925 356.999 345.516 360.154 C 360.044 362.744 374.062 366.183 387.56 370.505 C 363.366 334.458 343.265 297.05 327.435 258.172 C 311.76 219.689 300.304 179.805 293.241 138.457 C 288.41 151.683 285.066 168.195 283.755 189.168 C 282.097 215.582 283.661 248.978 289.472 291.618 C 289.513 291.828 289.534 292.042 289.534 292.268 C 289.534 294 288.211 295.396 286.576 295.396 L 274.953 295.396 C 273.568 295.396 272.329 294.364 272.048 292.866 C 263.592 247.491 261.383 208.055 265.371 174.468 C 269.257 141.765 279.015 114.638 294.575 93.006 C 285.045 82.724 276.056 71.743 267.517 60.163 C 259.352 49.083 251.614 37.503 244.188 25.575 C 236.761 37.503 229.022 49.083 220.857 60.163 C 212.317 71.743 203.328 82.724 193.789 93.006 C 209.359 114.638 219.119 141.765 223.003 174.468 C 226.981 208.02 224.784 247.411 216.347 292.727 C 216.139 294.234 214.91 295.396 213.422 295.396 L 201.798 295.396 C 201.663 295.396 201.517 295.387 201.381 295.363 C 199.767 295.127 198.642 293.535 198.871 291.818 C 204.713 249.073 206.276 215.617 204.621 189.168 C 203.298 168.195 199.965 151.683 195.133 138.457 C 188.071 179.805 176.613 219.689 160.939 258.172 C 145.108 297.05 124.997 334.458 100.813 370.505 C 114.311 366.183 128.33 362.744 142.859 360.154 C 160.408 357.01 178.75 355.077 197.819 354.29 L 197.902 354.29 C 199.528 354.194 200.912 355.517 201.006 357.249 C 201.495 366.751 201.017 376.404 199.589 386.202 C 198.257 395.446 196.08 404.834 193.122 414.373 Z" style=""/><path class="fil47" d="M 244.188 33.012 L 244.188 106.832 C 229.533 96.45 215.275 92.007 201.851 93.256 C 218.159 75.187 232.137 54.974 244.188 33.012 Z" style=""/><path class="fil47" d="M 202.08 97.149 C 215.514 96.999 230.481 104.884 244.188 116.016 L 244.188 329.492 C 239.344 317.278 230.626 306.093 219.679 297.118 C 235.928 200.567 226.648 138.507 202.08 97.149 Z" style=""/><path class="fil47" d="M 244.188 337.967 L 244.188 470.675 L 197.945 411.11 C 204.225 390.42 206.786 371.494 205.808 354.233 L 244.188 337.967 Z" style=""/><path class="fil47" d="M 216.836 299.4 C 223.815 302.229 232.793 313.849 243.458 332.846 C 213.495 326.428 182.874 327.984 151.983 332.846 C 165.657 320.657 180.729 309.517 197.642 299.778 L 216.836 299.4 Z" style=""/><path class="fil47" d="M 199.912 206.148 C 203.683 215.663 202.537 245.774 196.549 296.106 C 182.509 302.18 165.876 315.513 148.618 330.55 C 173.062 289.792 188.895 248.209 199.912 206.148 Z" style=""/><path class="fil47" d="M 270.943 299.4 C 263.965 302.229 254.977 313.849 244.312 332.846 C 274.286 326.428 304.907 327.984 335.798 332.846 C 322.113 320.657 307.053 309.517 290.139 299.778 L 270.943 299.4 Z" style=""/><path class="fil47" d="M 288.461 206.148 C 284.693 215.663 285.837 245.774 291.826 296.106 C 305.866 302.18 322.498 315.513 339.756 330.55 C 315.312 289.792 299.481 248.209 288.461 206.148 Z" style=""/><path class="fil47" d="M 248.707 107.58 L 248.707 116.052 C 257.633 105.384 271.422 97.499 287.035 90.661 C 287.035 90.661 279.755 85.72 248.707 107.58 Z" style=""/><path class="fil47" d="M 247.238 336.18 L 252.509 341.77 C 269.151 345.739 279.432 350.794 286.045 356.469 L 281.088 347.201 C 281.088 347.201 258.82 335.212 247.238 336.18 Z" style=""/><path class="fil47" d="M 140.931 331.234 C 128.725 344.211 117.613 354.433 107.207 362.649 C 120.643 357.129 133.797 349.192 146.639 338.581 L 139.546 338.405 L 140.931 331.234 Z" style=""/><path class="fil47" d="M 347.442 331.234 C 359.648 344.211 370.761 354.433 381.166 362.649 C 367.731 357.129 354.575 349.192 341.735 338.581 L 348.828 338.405 L 347.442 331.234 Z" style=""/></svg>